<?xml version="1.0" encoding="UTF-8" standalone="no"?>
<!-- Created with Inkscape (http://www.inkscape.org/) -->

<svg
   version="1.1"
   id="svg2"
   xml:space="preserve"
   width="707.96002"
   height="666.65332"
   viewBox="0 0 707.96002 666.65332"
   sodipodi:docname="GitHubLogo.svg"
   inkscape:version="1.1.2 (0a00cf5339, 2022-02-04)"
   xmlns:inkscape="http://www.inkscape.org/namespaces/inkscape"
   xmlns:sodipodi="http://sodipodi.sourceforge.net/DTD/sodipodi-0.dtd"
   xmlns="http://www.w3.org/2000/svg"
   xmlns:svg="http://www.w3.org/2000/svg"><defs
     id="defs6" /><sodipodi:namedview
     id="namedview4"
     pagecolor="#505050"
     bordercolor="#eeeeee"
     borderopacity="1"
     inkscape:pageshadow="0"
     inkscape:pageopacity="0"
     inkscape:pagecheckerboard="0"
     showgrid="false"
     inkscape:zoom="1.0785216"
     inkscape:cx="354.18855"
     inkscape:cy="332.86306"
     inkscape:window-width="3440"
     inkscape:window-height="1403"
     inkscape:window-x="0"
     inkscape:window-y="0"
     inkscape:window-maximized="1"
     inkscape:current-layer="g10" /><g
     id="g8"
     inkscape:groupmode="layer"
     inkscape:label="ink_ext_XXXXXX"
     transform="matrix(1.3333333,0,0,-1.3333333,0,666.65333)"><g
       id="g10"
       transform="scale(0.1)"><path
         d="M 2649.5994,4992.3586 C 1235.7002,4992.3586 89.049123,3845.8647 89.049123,2431.494 89.049123,1300.0917 822.72349,340.35691 1840.3096,1.7380144 1968.4315,-21.842688 2015.1211,57.231285 2015.1211,125.14372 c 0,60.83821 -2.2008,221.81585 -3.4584,435.45707 -712.2946,-154.68946 -862.5822,343.33499 -862.5822,343.33499 -116.4887,295.85922 -284.38336,374.61892 -284.38336,374.61892 -232.50576,158.7767 17.60694,155.6326 17.60694,155.6326 257.02962,-18.0786 392.22572,-263.9467 392.22572,-263.9467 228.4184,-391.28256 599.4215,-278.25231 745.3075,-212.69801 23.2663,165.37931 89.4495,278.25241 162.5497,342.23461 -568.6095,64.6112 -1166.459,284.3834 -1166.459,1265.6551 0,279.51 99.8251,508.2428 263.6324,687.1418 -26.4104,64.7683 -114.2879,325.2565 25.1527,677.7095 0,0 214.8989,68.8556 704.12,-262.5319 204.2089,56.9082 423.3522,85.2049 641.0807,86.3054 217.5714,-1.1005 436.5574,-29.3972 641.0808,-86.3054 488.9068,331.3875 703.4912,262.5319 703.4912,262.5319 139.755,-352.453 51.8775,-612.9412 25.6244,-677.7095 164.1217,-178.899 263.1606,-407.6318 263.1606,-687.1418 0,-983.787 -598.7926,-1200.2579 -1169.1315,-1263.6114 91.8076,-79.074 173.7112,-235.3354 173.7112,-474.12931 0,-342.39186 -3.1441,-618.60056 -3.1441,-702.54787 0,-68.541255 46.2182,-148.244048 176.0692,-123.2485006 C 4477.5759,341.30017 5210.6215,1300.406 5210.6215,2431.494 c 0,1414.3707 -1146.6512,2560.8646 -2561.0221,2560.8646"
         style="fill:#ffffff;fill-opacity:1;fill-rule:evenodd;stroke:none;stroke-width:15.7205"
         id="path104" /></g></g></svg>
